HIERARCHY
ROOT Hips
{
	OFFSET 9.372200 17.319796 17.869305
	CHANNELS 6 Xposition Yposition Zposition Xrotation Yrotation Zrotation
	JOINT LHipJoint
	{
		OFFSET 0.000000 0.000000 -0.000002
		CHANNELS 6 Xposition Yposition Zposition Xrotation Yrotation Zrotation
		JOINT LeftUpLeg
		{
			OFFSET 1.013818 0.082737 -0.080866
			CHANNELS 6 Xposition Yposition Zposition Xrotation Yrotation Zrotation
			JOINT LeftLeg
			{
				OFFSET 0.411019 -0.324488 -3.909500
				CHANNELS 6 Xposition Yposition Zposition Xrotation Yrotation Zrotation
				JOINT LeftFoot
				{
					OFFSET 0.380987 0.146996 -4.055529
					CHANNELS 6 Xposition Yposition Zposition Xrotation Yrotation Zrotation
					JOINT LeftToeBase
					{
						OFFSET 0.139586 -1.307881 -0.446151
						CHANNELS 6 Xposition Yposition Zposition Xrotation Yrotation Zrotation
						End Site
						{
							OFFSET 0.122076 -1.370759 -0.187618
						}
					}
				}
			}
		}
	}
	JOINT LowerBack
	{
		OFFSET 0.000000 0.387333 0.797709
		CHANNELS 6 Xposition Yposition Zposition Xrotation Yrotation Zrotation
		JOINT Spine
		{
			OFFSET 0.000000 -0.171494 1.413134
			CHANNELS 6 Xposition Yposition Zposition Xrotation Yrotation Zrotation
			JOINT Spine1
			{
				OFFSET 0.000000 0.103199 1.439190
				CHANNELS 6 Xposition Yposition Zposition Xrotation Yrotation Zrotation
				JOINT LeftShoulder
				{
					OFFSET 0.227362 -0.403208 1.038218
					CHANNELS 6 Xposition Yposition Zposition Xrotation Yrotation Zrotation
					JOINT LeftArm
					{
						OFFSET 1.473034 0.023096 -0.226677
						CHANNELS 6 Xposition Yposition Zposition Xrotation Yrotation Zrotation
						JOINT LeftForeArm
						{
							OFFSET 1.613113 -0.008150 -1.805944
							CHANNELS 6 Xposition Yposition Zposition Xrotation Yrotation Zrotation
							JOINT LeftHand
							{
								OFFSET 1.219654 -1.631788 -1.242294
								CHANNELS 6 Xposition Yposition Zposition Xrotation Yrotation Zrotation
								JOINT LThumb
								{
									OFFSET 0.010973 -0.438648 -0.075336
									CHANNELS 6 Xposition Yposition Zposition Xrotation Yrotation Zrotation
									End Site
									{
										OFFSET -0.218413 -0.219176 -0.090710
									}
								}
								JOINT LeftFingerBase
								{
									OFFSET 0.107111 -0.260653 -0.156710
									CHANNELS 6 Xposition Yposition Zposition Xrotation Yrotation Zrotation
									JOINT LeftHandFinger1
									{
										OFFSET 0.170596 -0.683022 -0.249149
										CHANNELS 6 Xposition Yposition Zposition Xrotation Yrotation Zrotation
										End Site
										{
											OFFSET 0.096752 -0.598689 -0.435783
										}
									}
								}
							}
						}
					}
				}
				JOINT Neck
				{
					OFFSET 0.000000 -0.238134 1.749781
					CHANNELS 6 Xposition Yposition Zposition Xrotation Yrotation Zrotation
					JOINT Neck1
					{
						OFFSET 0.000000 -0.195871 0.504349
						CHANNELS 6 Xposition Yposition Zposition Xrotation Yrotation Zrotation
						JOINT Head
						{
							OFFSET 0.000000 -0.195871 0.504351
							CHANNELS 6 Xposition Yposition Zposition Xrotation Yrotation Zrotation
							End Site
							{
								OFFSET 0.000000 0.025324 0.540457
							}
						}
					}
				}
				JOINT RightShoulder
				{
					OFFSET -0.227362 -0.403208 1.038218
					CHANNELS 6 Xposition Yposition Zposition Xrotation Yrotation Zrotation
					JOINT RightArm
					{
						OFFSET -1.473034 0.023096 -0.226677
						CHANNELS 6 Xposition Yposition Zposition Xrotation Yrotation Zrotation
						JOINT RightForeArm
						{
							OFFSET -1.613113 -0.008150 -1.805944
							CHANNELS 6 Xposition Yposition Zposition Xrotation Yrotation Zrotation
							JOINT RightHand
							{
								OFFSET -1.219655 -1.631788 -1.242294
								CHANNELS 6 Xposition Yposition Zposition Xrotation Yrotation Zrotation
								JOINT RThumb
								{
									OFFSET -0.010973 -0.438648 -0.075336
									CHANNELS 6 Xposition Yposition Zposition Xrotation Yrotation Zrotation
									End Site
									{
										OFFSET 0.218413 -0.219176 -0.090710
									}
								}
								JOINT RightFingerBase
								{
									OFFSET -0.107111 -0.260653 -0.156710
									CHANNELS 6 Xposition Yposition Zposition Xrotation Yrotation Zrotation
									JOINT RightHandFinger1
									{
										OFFSET -0.170596 -0.683022 -0.249149
										CHANNELS 6 Xposition Yposition Zposition Xrotation Yrotation Zrotation
										End Site
										{
											OFFSET -0.096752 -0.598689 -0.435783
										}
									}
								}
							}
						}
					}
				}
			}
		}
	}
	JOINT RHipJoint
	{
		OFFSET 0.000000 0.000000 -0.000002
		CHANNELS 6 Xposition Yposition Zposition Xrotation Yrotation Zrotation
		JOINT RightUpLeg
		{
			OFFSET -1.013818 0.082737 -0.080866
			CHANNELS 6 Xposition Yposition Zposition Xrotation Yrotation Zrotation
			JOINT RightLeg
			{
				OFFSET -0.411020 -0.324488 -3.909500
				CHANNELS 6 Xposition Yposition Zposition Xrotation Yrotation Zrotation
				JOINT RightFoot
				{
					OFFSET -0.380987 0.146996 -4.055529
					CHANNELS 6 Xposition Yposition Zposition Xrotation Yrotation Zrotation
					JOINT RightToeBase
					{
						OFFSET -0.139586 -1.307881 -0.446151
						CHANNELS 6 Xposition Yposition Zposition Xrotation Yrotation Zrotation
						End Site
						{
							OFFSET -0.122077 -1.370759 -0.187618
						}
					}
				}
			}
		}
	}
}
MOTION
Frames: 4
Frame Time: 0.041667
9.372199 17.319796 17.869305 0.000000 0.000000 0.000000 0.000000 -0.000003 0.000001 -0.000004 -0.000001 -0.000005 1.013817 0.082736 -0.080865 0.000025 21.000006 -0.000005 0.411015 -0.324486 -3.909501 -0.000000 -0.000002 0.000000 0.380986 0.147001 -4.055528 -0.000002 0.000013 0.000004 0.139586 -1.307882 -0.446150 -0.000000 -0.000006 0.000003 -0.000001 0.387331 0.797709 0.000001 -0.000000 -0.000000 0.000002 -0.171495 1.413132 -0.000000 0.000000 -0.000000 -0.000001 0.103196 1.439193 -0.000002 0.000000 0.000000 0.227361 -0.403212 1.038217 0.000002 -0.000002 0.000000 1.473033 0.023095 -0.226672 -0.000001 8.000010 -0.000013 1.613114 -0.008146 -1.805948 -0.000003 0.000001 -0.000006 1.219659 -1.631787 -1.242295 -0.000005 0.000004 0.000001 0.010977 -0.438647 -0.075337 -0.000005 -0.000006 0.000012 0.107116 -0.260654 -0.156708 -0.000006 -0.000006 -0.000014 0.170597 -0.683017 -0.249148 0.000001 -0.000001 0.000005 -0.000001 -0.238134 1.749783 -16.000010 -0.000002 -0.000001 0.000000 -0.195871 0.504347 21.000002 0.000003 0.000001 0.000000 -0.195869 0.504350 11.000003 0.000001 -0.000000 -0.227363 -0.403212 1.038215 0.000002 0.000003 -0.000000 -1.473037 0.023095 -0.226676 0.000005 -8.000005 -0.000001 -1.613112 -0.008148 -1.805946 -0.000001 -0.000002 -0.000005 -1.219654 -1.631791 -1.242294 -0.000006 -0.000002 -0.000001 -0.010972 -0.438648 -0.075335 0.000006 0.000004 -0.000003 -0.107111 -0.260651 -0.156707 -0.000002 0.000002 0.000003 -0.170595 -0.683018 -0.249148 -0.000004 0.000003 -0.000002 0.000000 0.000000 0.000003 -0.000000 -0.000003 0.000003 -1.013816 0.082737 -0.080872 0.000026 -21.000007 0.000008 -0.411024 -0.324486 -3.909503 -0.000000 0.000004 -0.000001 -0.380990 0.146996 -4.055530 -0.000003 -0.000011 -0.000003 -0.139587 -1.307883 -0.446154 -0.000000 0.000005 -0.000003 
9.372199 17.319796 17.869305 -2.002824 3.496200 -7.479471 -0.000000 0.000001 -0.000004 -0.000007 -0.000002 -0.000005 1.013818 0.082739 -0.080869 3.448582 13.932230 1.673205 0.411018 -0.324491 -3.909501 18.833074 1.120294 6.747483 0.380986 0.146999 -4.055529 -17.424974 -1.006759 0.459845 0.139586 -1.307878 -0.446149 -4.338854 0.059772 -1.577887 -0.000000 0.387334 0.797704 2.302341 -1.187923 -0.347661 0.000000 -0.171490 1.413134 0.003009 -2.703923 -0.462556 0.000001 0.103198 1.439189 -1.275369 -2.125815 -0.279177 0.227361 -0.403214 1.038213 0.000003 -0.000002 0.000001 1.473034 0.023096 -0.226676 25.892342 34.855763 -63.129779 1.613116 -0.008150 -1.805940 -52.632379 -20.235188 -140.321209 1.219661 -1.631787 -1.242298 -10.119506 0.000009 0.000015 0.010974 -0.438647 -0.075337 -5.824895 -8.971266 11.807240 0.107116 -0.260655 -0.156707 -13.013279 -35.626157 -21.641354 0.170595 -0.683019 -0.249146 -0.000000 7.124997 0.000007 -0.000000 -0.238134 1.749784 -9.383138 7.228956 -2.624383 -0.000002 -0.195866 0.504350 27.795675 1.156292 -4.265055 -0.000001 -0.195867 0.504348 10.545396 -0.155314 -2.572351 -0.227362 -0.403212 1.038214 0.000002 0.000004 0.000000 -1.473030 0.023097 -0.226675 79.285526 -74.694163 80.074822 -1.613109 -0.008151 -1.805948 -1.704672 10.408999 18.552368 -1.219653 -1.631790 -1.242295 -7.558901 0.000008 -0.000008 -0.010973 -0.438648 -0.075338 -0.899353 -8.725688 -50.907695 -0.107111 -0.260653 -0.156703 6.451137 16.281270 -21.965074 -0.170596 -0.683021 -0.249146 -0.000003 -7.124988 0.000006 0.000000 0.000004 -0.000004 -0.000002 -0.000002 0.000003 -1.013816 0.082735 -0.080866 1.082521 -22.528559 5.001897 -0.411021 -0.324488 -3.909501 24.754368 -1.927270 -8.766311 -0.380989 0.146996 -4.055531 -17.593311 1.932848 -3.861922 -0.139586 -1.307881 -0.446153 3.698387 -0.043482 -1.345290 
9.372799 17.319199 17.866606 -2.049269 3.371387 -7.472607 0.000001 0.000001 0.000000 -0.000005 -0.000001 -0.000006 1.013818 0.082739 -0.080867 3.539028 14.093765 1.664617 0.411016 -0.324484 -3.909498 18.743617 1.109738 6.716450 0.380986 0.147001 -4.055528 -17.548358 -1.005948 0.406539 0.139588 -1.307884 -0.446149 -4.037167 0.051733 -1.468388 -0.000001 0.387333 0.797710 2.300286 -1.104934 -0.305102 0.000000 -0.171493 1.413132 0.094894 -2.601269 -0.403092 0.000003 0.103197 1.439191 -1.181759 -2.063652 -0.246807 0.227362 -0.403212 1.038211 0.000001 -0.000001 0.000001 1.473034 0.023097 -0.226677 25.652466 34.727793 -63.379169 1.613117 -0.008149 -1.805945 -52.606141 -20.264767 -140.245463 1.219658 -1.631789 -1.242295 -10.123507 0.000008 0.000018 0.010979 -0.438644 -0.075335 -5.782323 -8.886168 11.753087 0.107118 -0.260655 -0.156706 -13.015398 -35.520395 -21.695319 0.170602 -0.683021 -0.249149 0.000001 7.124993 0.000005 -0.000001 -0.238134 1.749780 -9.441118 7.179574 -2.720642 0.000000 -0.195870 0.504351 27.523328 0.927419 -4.351462 -0.000000 -0.195868 0.504347 10.461344 -0.193477 -2.621169 -0.227364 -0.403210 1.038212 0.000001 0.000003 0.000002 -1.473033 0.023101 -0.226677 80.039825 -74.523006 80.861530 -1.613112 -0.008149 -1.805946 -1.720704 10.456007 18.641147 -1.219653 -1.631794 -1.242296 -8.659499 0.000014 -0.000011 -0.010972 -0.438649 -0.075336 -0.869655 -8.390365 -50.938738 -0.107111 -0.260653 -0.156706 6.593729 16.602110 -22.026409 -0.170597 -0.683022 -0.249144 0.000006 -7.124992 -0.000004 0.000001 0.000001 -0.000001 0.000002 -0.000003 0.000002 -1.013814 0.082740 -0.080868 1.070074 -22.367066 4.910419 -0.411021 -0.324486 -3.909499 24.833849 -1.939597 -8.792865 -0.380990 0.146995 -4.055532 -17.625681 1.922284 -3.799493 -0.139586 -1.307884 -0.446152 3.647833 -0.042214 -1.326893 
9.369199 17.321495 17.865803 -2.072007 3.480921 -7.414487 0.000001 -0.000001 0.000000 -0.000005 -0.000001 -0.000006 1.013818 0.082734 -0.080869 3.610762 13.948584 1.637336 0.411017 -0.324486 -3.909498 18.688939 1.103282 6.697439 0.380985 0.146999 -4.055531 -17.546619 -1.021618 0.464116 0.139584 -1.307881 -0.446150 -4.733461 0.071104 -1.721095 -0.000000 0.387334 0.797704 2.409755 -1.166632 -0.292608 -0.000000 -0.171494 1.413130 0.091593 -2.627323 -0.387699 0.000001 0.103200 1.439190 -1.247202 -2.056334 -0.241508 0.227361 -0.403214 1.038210 0.000003 -0.000002 0.000001 1.473036 0.023097 -0.226679 25.705005 34.511665 -63.834320 1.613113 -0.008147 -1.805945 -52.579927 -20.294389 -140.169689 1.219659 -1.631786 -1.242293 -10.247901 0.000010 0.000013 0.010978 -0.438649 -0.075340 -5.972912 -8.795853 10.619202 0.107116 -0.260657 -0.156710 -13.805800 -35.288633 -23.043059 0.170603 -0.683022 -0.249149 -0.000003 7.124993 0.000002 0.000000 -0.238136 1.749780 -9.346218 7.349325 -2.759354 -0.000001 -0.195873 0.504345 27.336266 0.597862 -4.330053 -0.000001 -0.195866 0.504351 10.387690 -0.323547 -2.638845 -0.227362 -0.403213 1.038212 0.000003 0.000003 0.000000 -1.473035 0.023096 -0.226678 80.527623 -74.268492 81.334166 -1.613112 -0.008148 -1.805945 -1.689932 10.365693 18.470671 -1.219651 -1.631794 -1.242295 -9.764209 0.000008 -0.000008 -0.010974 -0.438647 -0.075339 -0.739283 -7.647441 -50.538055 -0.107114 -0.260653 -0.156706 6.771077 17.373693 -21.683906 -0.170598 -0.683021 -0.249148 -0.000006 -7.124999 0.000002 0.000001 0.000003 -0.000002 -0.000002 -0.000003 0.000001 -1.013816 0.082738 -0.080865 1.123639 -22.548241 4.990363 -0.411022 -0.324485 -3.909502 24.914985 -1.952102 -8.819968 -0.380989 0.147002 -4.055530 -17.705095 1.983272 -3.982630 -0.139587 -1.307882 -0.446151 3.506934 -0.039013 -1.275694 
